<mxfile host="app.diagrams.net" modified="2023-02-05T16:57:17.682Z" agent="5.0 (Macintosh)" etag="mQ8e0qIzGB6Yj5ncsVm_" version="20.8.16" type="github">
  <diagram name="Page-1" id="i0K88YmzRgLvwJopTRxy">
    <mxGraphModel dx="1194" dy="686" grid="1" gridSize="10" guides="1" tooltips="1" connect="1" arrows="1" fold="1" page="1" pageScale="1" pageWidth="850" pageHeight="1100" background="none" math="0" shadow="0">
      <root>
        <mxCell id="0" />
        <mxCell id="1" parent="0" />
        <mxCell id="94HydwiYhW3RjQXM5LIN-4" value="" style="edgeStyle=orthogonalEdgeStyle;rounded=0;orthogonalLoop=1;jettySize=auto;html=1;sketch=1;curveFitting=1;jiggle=2;" parent="1" source="23csbhORdFdq-_ehG7OC-1" target="94HydwiYhW3RjQXM5LIN-3" edge="1">
          <mxGeometry relative="1" as="geometry" />
        </mxCell>
        <mxCell id="23csbhORdFdq-_ehG7OC-1" value="Add sample(s) to ERA" style="whiteSpace=wrap;html=1;aspect=fixed;rounded=0;glass=0;sketch=1;curveFitting=1;jiggle=2;spacingTop=1;spacingLeft=1;spacingRight=1;fillColor=#ffe6cc;strokeColor=#d79b00;" parent="1" vertex="1">
          <mxGeometry x="80" y="80" width="80" height="80" as="geometry" />
        </mxCell>
        <mxCell id="94HydwiYhW3RjQXM5LIN-6" value="" style="edgeStyle=orthogonalEdgeStyle;rounded=0;orthogonalLoop=1;jettySize=auto;html=1;sketch=1;curveFitting=1;jiggle=2;" parent="1" source="94HydwiYhW3RjQXM5LIN-3" target="94HydwiYhW3RjQXM5LIN-5" edge="1">
          <mxGeometry relative="1" as="geometry" />
        </mxCell>
        <mxCell id="94HydwiYhW3RjQXM5LIN-3" value="" style="whiteSpace=wrap;html=1;aspect=fixed;sketch=1;curveFitting=1;jiggle=2;fillColor=#dae8fc;strokeColor=#6c8ebf;" parent="1" vertex="1">
          <mxGeometry x="240" y="80" width="80" height="80" as="geometry" />
        </mxCell>
        <mxCell id="94HydwiYhW3RjQXM5LIN-8" value="" style="edgeStyle=orthogonalEdgeStyle;rounded=0;orthogonalLoop=1;jettySize=auto;html=1;sketch=1;curveFitting=1;jiggle=2;" parent="1" source="94HydwiYhW3RjQXM5LIN-5" target="94HydwiYhW3RjQXM5LIN-7" edge="1">
          <mxGeometry relative="1" as="geometry" />
        </mxCell>
        <mxCell id="94HydwiYhW3RjQXM5LIN-5" value="" style="whiteSpace=wrap;html=1;aspect=fixed;sketch=1;curveFitting=1;jiggle=2;fillColor=#f8cecc;strokeColor=#b85450;" parent="1" vertex="1">
          <mxGeometry x="400" y="80" width="80" height="80" as="geometry" />
        </mxCell>
        <mxCell id="94HydwiYhW3RjQXM5LIN-7" value="" style="whiteSpace=wrap;html=1;aspect=fixed;sketch=1;curveFitting=1;jiggle=2;fillColor=#d5e8d4;strokeColor=#82b366;" parent="1" vertex="1">
          <mxGeometry x="560" y="80" width="80" height="80" as="geometry" />
        </mxCell>
      </root>
    </mxGraphModel>
  </diagram>
</mxfile>
